PathFileType	4	(X/Y/Z)	Patient4_TMGait_0pt5_02_left_33.trc.trc
DataRate	CameraRate	NumFrames	NumMarkers	Units	OrigDataRate	OrigDataStartFrame	OrigNumFrames
80.924855491330	80.924855491330	4	33	mm	80.924855491330	106	       141
Frame#	Time	Sacral			L.Shoulder			Chest			R.Shoulder			Neck			R.ASIS			L.ASIS			R.Thigh.Superior			R.Thigh.Lateral			R.Thigh.Inferior			R.Patella			L.Thigh.Superior			L.Thigh.Lateral			L.Thigh.Inferior			L.Patella			L.Shank.Superior			L.Shank.Lateral			L.Shank.Inferior			R.Shank.Superior			R.Shank.Lateral			R.Shank.Inferior			R.Heel			R.Midfoot.Superior			R.Midfoot.Lateral			R.Toe			L.Heel			L.Midfoot.Lateral			L.Midfoot.Superior			L.Toe			L.Elbow			L.Wrist			R.Elbow			R.Wrist			
		X1	Y1	Z1	X2	Y2	Z2	X3	Y3	Z3	X4	Y4	Z4	X5	Y5	Z5	X6	Y6	Z6	X7	Y7	Z7	X8	Y8	Z8	X9	Y9	Z9	X10	Y10	Z10	X11	Y11	Z11	X12	Y12	Z12	X13	Y13	Z13	X14	Y14	Z14	X15	Y15	Z15	X16	Y16	Z16	X17	Y17	Z17	X18	Y18	Z18	X19	Y19	Z19	X20	Y20	Z20	X21	Y21	Z21	X22	Y22	Z22	X23	Y23	Z23	X24	Y24	Z24	X25	Y25	Z25	X26	Y26	Z26	X27	Y27	Z27	X28	Y28	Z28	X29	Y29	Z29	X30	Y30	Z30	X31	Y31	Z31	X32	Y32	Z32	X33	Y33	Z33	

106	43.817500000000	734.471022029967	1016.694164609993	526.539239644231	929.220337731092	1437.017719915303	348.992853225050	1029.924678765274	1362.272465358197	508.536787350474	951.640802339327	1438.663671427297	684.641877332326	932.602295416641	1497.061879732700	501.039258420261	959.036356264342	943.839545293427	642.291194602003	944.478830288279	963.445330822306	369.632065382962	987.185103851381	738.711170996207	610.914007438896	898.411164415902	635.371882357933	667.408806658843	971.536746231532	578.810317064204	586.979160244428	966.161882481556	492.220136460949	589.517984426261	1025.989372710287	786.200880857831	396.858003003548	986.997127686809	662.225257698380	313.184008944327	1089.999922924983	601.690773270097	374.251676443900	1109.464615459840	516.898186227190	366.684056351325	1057.861284081067	442.984581838221	357.215772781590	933.025291145611	369.735442605517	303.220539346148	949.828278576862	240.711172467496	357.113254781946	937.556703353706	405.276569893967	594.260474310391	864.582692701130	302.025796629722	653.157855082800	904.208457016509	207.646177387438	587.439239555970	765.785970175363	44.575103654726	555.756599329045	938.736299491601	97.156097020086	588.087797910105	850.903239691588	37.117581267984	628.143246698931	1059.046467022807	40.767422951738	612.119176312703	778.733446378574	134.644824776970	387.988094464521	846.347014514612	106.404170054081	308.081414722416	946.471040380545	134.419303132285	333.031651656163	1045.748656861613	42.943464346522	303.572031104350	885.406452642512	1080.737783244723	240.527635316184	948.282561767261	827.387975395395	228.517861691482	1005.934919556659	1105.863790594431	817.191930420588	1254.646078047145	1055.021315744861	788.314800490270	
107	43.829857142857	733.771299141558	1017.114839454554	527.612340462591	928.057534676003	1437.002103216152	349.147782201874	1029.991490700202	1361.890882974551	507.703758806310	953.510081211945	1438.389736068642	684.485250541778	932.887235990856	1496.877671305680	501.185043923213	958.583051793456	943.542285339239	641.846613260069	942.777699423455	963.427789102913	369.222175883583	984.189181300273	737.872684575028	610.046935042868	894.919248680265	635.284887417775	667.478334281975	966.875321726313	578.143313209955	586.646186089364	960.724114904677	491.824284752511	589.311440524019	1024.321617188859	786.928762345264	396.711295776568	985.678223185388	662.606159808140	312.949518790425	1088.514855935779	602.455119549415	374.322323084761	1109.335138723801	519.468945467642	366.722914687720	1061.596966470443	444.841564058344	356.797130521761	942.075361883834	364.208585542408	301.974806408974	966.908636236372	236.199740007582	355.756092985012	931.978456098301	404.971395753776	594.183853794459	858.881507392065	301.869696527472	653.174851810786	898.168643818595	207.415504664697	587.408887374075	759.508384816684	44.450070970539	555.795743201083	932.410682074880	97.074123994244	588.067294636717	844.637542332861	37.071374565124	628.231869212384	1052.759876366314	40.805576408380	612.164458979010	803.215492230969	118.872853595663	386.013557270643	872.681076950221	95.694019425487	306.076275887632	970.620293091055	130.148749323140	331.327835684242	1075.819973250706	45.796915670999	301.700151805648	877.170744027033	1081.403344221786	241.477844816065	929.954461769392	826.008384581184	229.746836791885	1014.661155155979	1107.804701622815	817.079341145172	1264.703968495592	1069.942116253855	784.113551224791	
108	43.842214285714	733.134881684994	1017.423080974561	528.542459883970	926.954104803713	1436.922764645695	349.203337874744	1030.090391901781	1361.393320432116	506.757538752759	955.372346846280	1437.957901228514	684.205179456364	933.195177304383	1496.586227138609	501.241832814958	958.185083653990	943.160230041586	641.292709083517	941.230433012552	963.245793752700	368.664202306622	981.372836454711	736.998863724490	609.234910816705	891.582539477375	635.135663322514	667.509300685684	962.436863617307	577.450822706560	586.317454546699	955.530874545241	491.374591488912	589.091828780246	1022.325738071298	787.014992417782	396.481325986095	983.703828957847	662.458980818646	312.613919307480	1086.186610292261	602.446771746807	374.508906528428	1108.282416484757	521.476831814562	366.926436250072	1064.559180637953	446.469483440073	356.517760476220	951.114681081248	358.543546248086	300.655449636466	983.975365005500	232.140023706132	354.572673943879	926.588880809100	404.601420282370	594.070043022080	853.341645980255	301.673027359667	653.174897017543	892.198426770263	207.138557380645	587.342795384815	753.227757906682	44.327669587492	555.835989873818	926.072886123103	96.980076793510	588.018781529857	838.370940694079	37.023848767520	628.317836803867	1046.475976172754	40.839037967507	612.197632212898	828.521379325889	103.884498874422	383.980841857093	899.760183281466	85.780460632213	304.259806646891	994.982131188413	126.653519160199	329.987614374015	1105.770045771159	49.775090850625	300.688923551056	868.745874289380	1082.275575041455	242.141780645417	912.166366932116	825.363200694755	230.987727900113	1023.149488571210	1109.691521319481	816.701254844921	1273.706374271825	1084.436409816467	779.480162389850	
109	43.854571428571	732.579582864616	1017.614097143547	529.330237972199	925.930400599184	1436.775719712172	349.139241453469	1030.216824859272	1360.796008904943	505.702136754297	957.193747898635	1437.399696783249	683.790849387929	933.526289698190	1496.201399473656	501.181157846570	957.852123661095	942.706725424682	640.649202537215	939.826068816373	962.908993675005	367.984244046497	978.786725000556	736.104677285213	608.499001176198	888.450735071833	634.923113406870	667.494357493768	958.276215403092	576.730418884867	585.987964839196	950.644904767153	490.865637841414	588.850631377374	1020.032417827430	786.488482508979	396.173995251039	981.184636489101	661.859467328602	312.135817980969	1083.124929128349	601.744311497045	374.774995180326	1106.414836242964	522.959557999353	367.263067779252	1066.783366221037	447.907026323476	356.356432285101	960.052952676914	352.948905499292	299.311950882013	1000.768395976487	228.732729092543	353.616447928405	921.438236416615	404.162757299125	593.910694287253	848.001878372782	301.445770023799	653.155862461982	886.324366061612	206.817692102610	587.239966850282	746.946943672931	44.215853781097	555.879672858109	919.728894482957	96.877309290930	587.947501533927	832.105648001125	36.977667485796	628.400911442511	1040.197467990158	40.864669794221	612.221750888382	854.224189011375	90.120022854540	382.030548278645	927.126803994285	76.979898074353	302.755504363218	1019.152338043476	124.127395430328	329.076251687848	1135.082491662721	54.929855811974	300.597097015496	860.235706917212	1083.344260312947	242.551017031647	894.990124379784	825.336496902170	232.247664873023	1031.366006403105	1111.520177166001	816.051932498063	1281.673331326259	1098.417998919104	774.452077278515	
